<?xml version="1.0" standalone="no"?>
<!DOCTYPE svg PUBLIC "-//W3C//DTD SVG 20010904//EN"
 "http://www.w3.org/TR/2001/REC-SVG-20010904/DTD/svg10.dtd">
<svg version="1.0" xmlns="http://www.w3.org/2000/svg"
 width="170.000000pt" height="170.000000pt" viewBox="0 0 170.000000 170.000000"
 preserveAspectRatio="xMidYMid meet">
<metadata>
Created by potrace 1.11, written by Peter Selinger 2001-2013
</metadata>
<g transform="translate(0.000000,170.000000) scale(0.100000,-0.100000)"
fill="#000000" stroke="none">
<path d="M893 1363 c15 -2 39 -2 55 0 15 2 2 4 -28 4 -30 0 -43 -2 -27 -4z"/>
<path d="M660 1352 c0 -4 -30 -7 -67 -6 l-68 2 66 -7 c68 -8 129 -35 137 -61
4 -13 2 -12 -14 1 -21 17 -56 38 -39 23 47 -43 77 -66 66 -51 -9 11 -10 17 -2
17 17 0 43 -46 58 -103 13 -51 13 -51 8 -8 -3 24 -12 56 -20 71 -14 28 -14 29
22 50 21 12 52 24 70 27 20 4 30 10 26 17 -3 6 0 5 8 -1 7 -7 22 -13 34 -13
22 -1 48 -14 88 -46 27 -21 27 -22 12 -64 -19 -55 -19 -80 1 -80 12 0 15 6 10
25 -4 15 -2 25 4 25 7 0 9 8 5 21 -5 13 -3 19 3 15 5 -3 13 1 16 10 4 10 2 13
-7 8 -20 -11 64 60 87 73 12 7 17 12 11 12 -5 1 -16 -3 -24 -8 -10 -7 -19 -4
-28 7 -10 14 -12 14 -13 2 0 -11 -3 -11 -12 -2 -10 10 -10 15 2 22 10 7 18 5
26 -5 16 -21 23 -19 17 5 -3 12 0 20 7 20 7 0 10 -7 6 -16 -5 -13 -2 -15 16
-9 151 49 287 -47 288 -203 0 -50 -26 -130 -38 -117 -3 3 0 11 6 17 7 7 12 21
12 33 0 13 -6 7 -19 -20 -12 -28 -15 -42 -7 -47 19 -13 24 -9 41 37 42 110 -3
243 -100 298 -43 24 -59 27 -117 24 -38 -1 -68 1 -68 6 0 11 -59 -2 -86 -20
-19 -12 -26 -11 -58 8 -20 12 -40 19 -43 15 -4 -3 -1 -6 5 -6 7 0 22 -10 34
-22 12 -12 31 -22 42 -23 25 0 33 -23 11 -32 -11 -4 -21 0 -27 10 -10 19 -57
45 -87 50 -11 2 -23 6 -26 9 -10 9 -79 -3 -87 -16 -4 -6 -8 -7 -8 -2 0 5 -9 1
-20 -9 -18 -17 -20 -17 -20 -1 0 10 14 23 33 31 17 8 25 14 17 15 -8 0 -30 -9
-47 -20 -18 -11 -39 -17 -48 -14 -8 4 -15 1 -15 -5 0 -6 -7 -11 -15 -11 -8 0
-15 5 -15 10 0 6 6 10 13 10 6 0 -1 7 -17 15 -32 17 -46 19 -46 7z m35 -12 c3
-5 2 -10 -4 -10 -5 0 -13 5 -16 10 -3 6 -2 10 4 10 5 0 13 -4 16 -10z m85 -46
c0 -9 -7 -14 -17 -12 -25 5 -28 28 -4 28 12 0 21 -6 21 -16z m335 -24 c-10
-11 -22 -20 -28 -20 -5 0 1 9 14 20 31 25 37 25 14 0z"/>
<path d="M457 1309 c-31 -21 -54 -46 -71 -81 -30 -60 -34 -108 -10 -108 12 0
15 7 12 29 -2 17 0 27 5 24 5 -3 6 4 2 16 -4 15 -3 21 7 19 7 -2 12 5 12 14
-1 10 2 16 6 13 4 -3 20 13 35 35 15 22 30 40 32 40 2 0 1 -5 -3 -11 -4 -7 2
-7 17 1 31 16 39 25 15 16 -16 -5 -17 -4 -6 9 20 24 -3 17 -53 -16z m-7 -33
c0 -2 -8 -10 -17 -17 -16 -13 -17 -12 -4 4 13 16 21 21 21 13z"/>
<path d="M563 1323 c15 -2 37 -2 50 0 12 2 0 4 -28 4 -27 0 -38 -2 -22 -4z"/>
<path d="M1233 1323 c9 -2 23 -2 30 0 6 3 -1 5 -18 5 -16 0 -22 -2 -12 -5z"/>
<path d="M1345 1291 c35 -21 57 -45 78 -86 9 -16 16 -26 17 -22 1 31 -84 127
-113 127 -7 0 2 -8 18 -19z"/>
<path d="M761 1210 c14 -31 19 -36 19 -24 0 6 -7 19 -16 30 -14 18 -14 18 -3
-6z"/>
<path d="M770 1145 c0 -14 5 -25 10 -25 6 0 10 11 10 25 0 14 -4 25 -10 25 -5
0 -10 -11 -10 -25z"/>
<path d="M1443 1120 c0 -25 2 -35 4 -22 2 12 2 32 0 45 -2 12 -4 2 -4 -23z"/>
<path d="M352 1003 c-2 -73 0 -81 16 -78 9 2 21 4 25 4 5 1 6 5 2 11 -3 5 -12
7 -20 4 -11 -5 -15 9 -18 68 l-3 73 -2 -82z"/>
<path d="M412 1014 c-2 -54 2 -75 13 -84 26 -22 39 4 41 83 1 39 0 54 -2 32
-8 -79 -15 -106 -27 -102 -7 2 -14 33 -18 73 l-5 69 -2 -71z"/>
<path d="M482 1003 l1 -78 6 60 6 60 13 -52 c21 -80 32 -74 30 14 -1 75 -1 76
-7 23 l-6 -55 -14 48 c-21 73 -31 66 -29 -20z"/>
<path d="M559 1058 c-2 -13 -2 -48 1 -78 5 -54 7 -57 45 -51 6 1 0 6 -12 11
-30 12 -32 60 -3 60 11 0 20 4 20 9 0 6 -9 8 -20 6 -16 -3 -20 2 -20 21 0 17
5 24 20 24 11 0 20 5 20 10 0 6 -11 10 -24 10 -17 0 -25 -6 -27 -22z"/>
<path d="M620 1071 c0 -14 21 -19 57 -13 l32 4 4 -68 3 -69 2 68 c1 37 7 67
12 67 6 0 10 5 10 10 0 6 -27 10 -60 10 -33 0 -60 -4 -60 -9z"/>
<path d="M750 1006 c0 -78 12 -97 48 -76 14 8 14 10 2 11 -8 1 -21 1 -27 0
-24 -3 -15 49 10 59 21 8 20 11 -5 14 -7 0 -14 11 -16 24 -3 17 2 22 17 22 12
0 21 5 21 10 0 6 -11 10 -25 10 -24 0 -25 -2 -25 -74z"/>
<path d="M827 1074 c-15 -16 -7 -63 13 -74 21 -11 27 -44 10 -55 -6 -3 -14 4
-18 16 -5 12 -12 18 -15 12 -9 -15 21 -53 38 -47 23 9 19 71 -5 86 -11 7 -20
21 -20 30 0 21 25 24 34 6 3 -7 5 -4 3 7 -2 20 -27 32 -40 19z"/>
<path d="M1250 1068 c-14 -5 -35 -19 -47 -30 -13 -12 -23 -16 -23 -10 0 17
-57 15 -85 -4 -32 -21 -74 -90 -111 -181 -22 -56 -34 -73 -49 -73 -17 -1 -18
-2 -5 -13 9 -7 14 -20 12 -30 -3 -16 -1 -16 19 4 39 39 34 3 -11 -71 -23 -39
-44 -70 -46 -70 -2 0 3 21 11 48 13 45 13 46 -3 26 -9 -11 -25 -31 -34 -45
l-17 -24 0 23 c-1 13 11 53 25 89 28 70 26 115 -7 121 -18 3 -51 -65 -68 -137
-5 -24 -18 -53 -28 -64 -11 -12 -32 -35 -46 -52 -15 -16 -27 -27 -27 -23 0 13
24 62 43 91 27 40 11 77 -33 77 -24 0 -31 4 -29 18 3 32 -1 40 -22 45 -30 8
-65 -11 -79 -41 -10 -23 -9 -29 9 -43 21 -17 21 -17 -24 -112 -24 -52 -47
-106 -50 -120 -9 -34 10 -67 39 -67 21 0 24 6 30 61 3 33 21 98 38 142 27 66
37 83 56 85 22 3 23 2 9 -20 -24 -36 -50 -137 -43 -164 11 -41 47 -31 96 27
41 49 43 50 54 28 6 -12 19 -27 29 -33 15 -9 22 -6 39 14 l21 25 -7 -38 c-6
-32 -3 -41 21 -65 l27 -27 16 80 c18 85 44 182 62 228 7 17 18 27 32 27 20 1
20 2 3 14 -15 12 -16 17 -3 47 8 19 29 45 46 58 l32 23 -7 -23 c-19 -57 -37
-89 -51 -89 -13 0 -14 -3 -5 -14 10 -12 6 -37 -18 -122 -17 -59 -31 -117 -31
-129 0 -22 28 -55 46 -55 5 0 16 37 25 83 27 138 61 237 81 237 20 0 24 16 7
22 -22 7 13 77 48 98 37 22 93 95 93 121 0 25 -29 39 -60 27z m-10 -77 c-25
-36 -39 -42 -18 -8 8 12 18 28 22 35 5 7 10 11 13 8 3 -3 -5 -19 -17 -35z
m-100 6 c0 -2 -11 -18 -25 -37 -14 -19 -25 -29 -25 -23 0 6 9 22 21 37 18 23
29 32 29 23z m-490 -251 c0 -16 -18 -31 -27 -22 -8 8 5 36 17 36 5 0 10 -6 10
-14z"/>
<path d="M643 985 c0 -33 2 -45 4 -27 2 18 2 45 0 60 -2 15 -4 0 -4 -33z"/>
<path d="M910 976 c-19 -51 -22 -92 -7 -104 12 -10 19 -6 41 22 30 40 32 53
10 84 -20 28 -32 28 -44 -2z"/>
<path d="M1378 929 l-10 -30 -23 21 c-13 12 -31 20 -41 18 -27 -5 -61 -62 -89
-150 -33 -104 -33 -142 0 -164 14 -9 27 -15 29 -13 2 2 23 33 46 69 23 36 41
56 40 45 -5 -42 1 -56 26 -67 23 -11 28 -9 45 12 31 39 119 187 119 199 0 25
-34 -6 -81 -75 -29 -41 -53 -74 -54 -74 -7 0 23 108 37 138 16 31 14 65 -5 90
-15 20 -27 14 -39 -19z m-42 -73 c4 -18 -5 -41 -35 -88 -22 -34 -41 -56 -41
-48 0 16 36 136 46 151 10 16 24 9 30 -15z"/>
<path d="M438 831 c-113 -122 -209 -283 -230 -386 -15 -67 0 -107 48 -130 39
-18 65 -14 108 20 27 21 32 22 52 9 21 -14 22 -13 28 22 15 78 47 164 61 164
22 0 18 15 -7 27 -17 7 -36 6 -68 -3 -25 -8 -55 -14 -67 -14 -13 0 -23 -4 -23
-8 0 -16 24 -32 48 -32 19 0 22 -4 17 -22 -9 -31 -36 -68 -68 -91 -22 -17 -29
-18 -42 -7 -39 33 4 158 106 306 67 96 86 110 43 32 -51 -96 -45 -138 20 -138
19 0 22 4 19 23 -3 13 14 73 36 134 23 61 41 118 41 127 0 13 -35 36 -55 36
-2 0 -32 -31 -67 -69z"/>
</g>
</svg>
