<?xml version="1.0" standalone="no"?>
<!DOCTYPE svg PUBLIC "-//W3C//DTD SVG 20010904//EN"
 "http://www.w3.org/TR/2001/REC-SVG-20010904/DTD/svg10.dtd">
<svg version="1.0" xmlns="http://www.w3.org/2000/svg"
 width="535.000000pt" height="535.000000pt" viewBox="0 0 535.000000 535.000000"
 preserveAspectRatio="xMidYMid meet">
<metadata>
Created by potrace 1.11, written by Peter Selinger 2001-2013
</metadata>
<g transform="translate(0.000000,535.000000) scale(0.100000,-0.100000)"
fill="#000000" stroke="none">
<path d="M4341 4424 c-322 -109 -1047 -463 -1621 -792 -1210 -694 -2120 -1406
-2462 -1926 -309 -471 -198 -810 327 -996 113 -40 297 -84 440 -105 61 -9 124
-18 140 -21 82 -13 312 -16 420 -5 344 35 753 162 1126 349 69 35 79 37 95 24
71 -54 252 -115 479 -161 l139 -28 29 89 c29 93 129 297 212 433 114 188 382
578 509 739 14 18 26 18 212 12 108 -4 202 -10 209 -13 8 -2 18 4 24 15 9 17
4 26 -37 64 -125 116 -290 166 -567 173 -127 3 -342 -10 -468 -29 -17 -2 -57
-7 -87 -11 -30 -4 -66 -8 -80 -10 -14 -2 -86 -13 -160 -25 -74 -11 -157 -25
-185 -30 -27 -5 -70 -12 -95 -15 -25 -3 -61 -7 -80 -10 -191 -25 -366 -33
-589 -29 -112 2 -212 6 -222 9 -11 4 -22 -1 -28 -14 -9 -17 -3 -26 45 -70 97
-86 241 -140 424 -160 148 -16 585 2 624 26 13 9 0 -12 -69 -102 -34 -44 -100
-138 -147 -210 l-86 -130 -149 -82 c-553 -306 -963 -417 -1239 -337 -111 32
-177 67 -231 122 -165 168 -42 463 355 860 160 159 258 247 497 441 386 314
1097 785 1660 1101 247 139 625 330 625 316 0 -2 -46 -39 -102 -82 -544 -414
-859 -685 -1072 -924 -248 -277 -144 -443 304 -489 85 -8 546 -7 594 2 26 5
45 35 30 45 -17 11 -36 52 -41 89 -19 143 151 447 436 777 122 141 158 182
227 256 33 36 100 112 149 170 49 58 92 107 96 110 30 23 207 235 230 274 82
144 -7 221 -329 285 -90 18 -248 36 -386 44 -41 3 -77 -3 -125 -19z"/>
</g>
</svg>
